
<svg xmlns="http://www.w3.org/2000/svg" viewBox="0 0 24 24" fill="currentColor">
  <path d="M23 8c0 1.1-.9 2-2 2-.2 0-.4 0-.6-.1l-2.3 2.3c.1.2.1.4.1.6 0 1.1-.9 2-2 2-1.1 0-2-.9-2-2 0-.2 0-.4.1-.6l-2.1-2.1-5.4 5.4 2.8 2.8c.2-.1.4-.1.6-.1 1.1 0 2 .9 2 2 0 1.1-.9 2-2 2-1.1 0-2-.9-2-2 0-.2 0-.4.1-.6l-5.2-5.2c-.2.1-.4.1-.6.1-1.1 0-2-.9-2-2 0-1.1.9-2 2-2 .2 0 .4 0 .6.1l5.2-5.2C7.4 2.9 7.4 2.7 7.4 2.5c0-1.1.9-2 2-2 1.1 0 2 .9 2 2 0 .2 0 .4-.1.6l2.1 2.1 5.4-5.4-2.8-2.8c-.2.1-.4.1-.6.1-1.1 0-2-.9-2-2 0-1.1.9-2 2-2 1.1 0 2 .9 2 2 0 .2 0 .4-.1.6l5.2 5.2c.2-.1.4-.1.6-.1 1.1 0 2 .9 2 2"/>
</svg>
